<svg xmlns="http://www.w3.org/2000/svg" xmlns:xlink="http://www.w3.org/1999/xlink" width="500" zoomAndPan="magnify" viewBox="0 0 375 374.999991" height="500" preserveAspectRatio="xMidYMid meet" version="1.0"><path fill="#000000" d="M 187.5 360.0625 C 92.347656 360.0625 14.941406 282.648438 14.941406 187.5 C 14.941406 92.347656 92.347656 14.941406 187.5 14.941406 C 282.648438 14.941406 360.058594 92.347656 360.058594 187.5 C 360.058594 282.648438 282.648438 360.0625 187.5 360.0625 Z M 360.261719 114.515625 C 350.816406 92.183594 337.300781 72.132812 320.082031 54.917969 C 302.863281 37.699219 282.8125 24.179688 260.484375 14.734375 C 237.367188 4.957031 212.808594 0 187.5 0 C 162.191406 0 137.632812 4.957031 114.515625 14.734375 C 92.183594 24.179688 72.136719 37.699219 54.917969 54.917969 C 37.699219 72.132812 24.183594 92.183594 14.738281 114.515625 C 4.960938 137.632812 0 162.191406 0 187.5 C 0 212.808594 4.960938 237.367188 14.738281 260.484375 C 24.183594 282.8125 37.699219 302.863281 54.917969 320.082031 C 72.136719 337.300781 92.183594 350.816406 114.515625 360.261719 C 137.632812 370.042969 162.191406 375 187.5 375 C 212.808594 375 237.367188 370.042969 260.484375 360.261719 C 282.8125 350.816406 302.863281 337.300781 320.082031 320.082031 C 337.300781 302.863281 350.816406 282.8125 360.261719 260.484375 C 370.042969 237.367188 375 212.808594 375 187.5 C 375 162.191406 370.042969 137.632812 360.261719 114.515625 " fill-opacity="1" fill-rule="nonzero"/><path fill="#000000" d="M 277.363281 250.796875 L 194.96875 183.941406 L 194.96875 95.265625 C 194.96875 91.140625 191.625 87.796875 187.5 87.796875 C 183.375 87.796875 180.027344 91.140625 180.027344 95.265625 L 180.027344 187.5 C 180.027344 189.753906 181.046875 191.882812 182.792969 193.300781 L 267.953125 262.398438 C 269.335938 263.523438 271 264.070312 272.652344 264.070312 C 274.828125 264.070312 276.984375 263.125 278.460938 261.304688 C 281.058594 258.101562 280.570312 253.398438 277.363281 250.796875 " fill-opacity="1" fill-rule="nonzero"/></svg>